<svg width="121" height="32" viewBox="0 0 121 32" fill="none" xmlns="http://www.w3.org/2000/svg">
<path d="M0 16C0 7.16344 7.16344 0 16 0C24.8366 0 32 7.16344 32 16C32 24.8366 24.8366 32 16 32C7.16344 32 0 24.8366 0 16Z" fill="#EDEDED"/>
<path d="M11.502 7C9.01727 7.00233 7 9.01727 7 11.502H11.502V7ZM11.502 11.502V15.9998H15.9998V11.502H11.502ZM15.9998 11.502V15.9998H24.1816V11.502H15.9998ZM15.9998 15.9998V20.4976L24.1816 20.5022V15.9998H15.9998ZM7 15.9998V20.4976L11.502 20.5022V15.9998H7ZM11.502 20.5022V24.9954L15.9998 25V20.4976L11.502 20.5022Z" fill="#E5012C"/>
<path d="M49.4773 10.0774C49.4912 9.52894 49.3481 9.09663 49.0479 8.78049C48.7477 8.46436 48.3503 8.30629 47.8557 8.30629C47.5904 8.30629 47.35 8.35822 47.1344 8.46207C46.9191 8.5657 46.7521 8.70283 46.6334 8.87344C46.5147 9.04383 46.4553 9.22284 46.4553 9.41047C46.4553 9.68756 46.5182 9.91893 46.6438 10.1046C46.7695 10.29 46.9235 10.4382 47.1059 10.549C47.2885 10.6596 47.5374 10.7807 47.8524 10.9123C47.8803 10.9223 47.9063 10.9343 47.9303 10.9483C48.04 10.9762 48.1348 11.0041 48.2147 11.0321C49.3776 11.401 50.338 11.7706 51.0959 12.1408C51.8538 12.5108 52.4836 13.0259 52.9852 13.6861C53.487 14.3463 53.722 15.1921 53.6901 16.2234C53.6622 17.1031 53.4248 17.8916 52.978 18.5889C52.5312 19.2859 51.8709 19.8344 50.9971 20.2343C50.1235 20.6342 49.0694 20.8342 47.8347 20.8342C46.7395 20.8342 45.7495 20.6103 44.8648 20.1627C43.9802 19.7147 43.2849 19.0913 42.7792 18.2924C42.2737 17.4934 42.014 16.5893 42 15.58V15.4426H46.2636C46.2836 15.8313 46.3709 16.164 46.5254 16.4404C46.6801 16.7166 46.8811 16.929 47.1285 17.0776C47.3759 17.2261 47.6581 17.3095 47.9751 17.3276C48.4239 17.3494 48.7969 17.2367 49.094 16.9895C49.3914 16.7421 49.5221 16.4229 49.4861 16.032C49.4582 15.7427 49.3345 15.4968 49.115 15.2943C48.8957 15.0918 48.6195 14.9188 48.2864 14.7753C47.9532 14.6315 47.5194 14.4679 46.9848 14.2844C46.0373 13.9733 45.2504 13.6626 44.624 13.3523C43.9976 13.0421 43.456 12.5768 42.9991 11.9566C42.5425 11.3363 42.3142 10.5284 42.3142 9.53287C42.3142 8.64534 42.57 7.85554 43.0816 7.1635C43.5932 6.47123 44.2813 5.93757 45.146 5.56253C46.0108 5.18749 46.9509 4.99997 47.9663 4.99997C49.0015 4.99997 49.948 5.20298 50.8056 5.609C51.6635 6.01481 52.3447 6.58981 52.8494 7.334C53.354 8.07797 53.6063 8.94162 53.6063 9.92493V10.0774H49.4773Z" fill="#E5012C"/>
<path d="M65.7808 9.36896V20.5829H60.5509C59.4379 20.5829 58.4691 20.3606 57.6444 19.9159C56.8197 19.4711 56.1903 18.8433 55.7561 18.0326C55.3222 17.2218 55.1052 16.2916 55.1052 15.242V9.36896H59.0785V15.5179C59.0785 15.8423 59.146 16.1232 59.2811 16.3606C59.4164 16.5979 59.5978 16.7791 59.8253 16.9042C60.0529 17.029 60.3046 17.0934 60.5806 17.0976H61.8075V9.36896H65.7808Z" fill="#E5012C"/>
<path d="M68.1726 26.1961V9.36899H74.101C75.2763 9.36899 76.3219 9.59382 77.2378 10.0435C78.1536 10.4931 78.8701 11.1401 79.3872 11.9845C79.9043 12.8288 80.1628 13.8156 80.1628 14.9449C80.1628 16.104 79.9043 17.1281 79.3872 18.0172C78.8701 18.9063 78.1536 19.5981 77.2378 20.0927C76.3219 20.5871 75.2763 20.8343 74.101 20.8343C73.6731 20.8343 73.2908 20.7491 72.9539 20.5787C72.6173 20.4083 72.3528 20.1723 72.1606 19.8708V26.1961H68.1726ZM71.8946 14.9717C71.8946 15.4181 71.9877 15.813 72.174 16.1564C72.3606 16.4996 72.624 16.7644 72.9644 16.951C73.3047 17.1373 73.6946 17.2305 74.134 17.2305C74.5671 17.2305 74.9542 17.1373 75.2955 16.951C75.6367 16.7644 75.9015 16.4997 76.09 16.1567C76.2785 15.8138 76.3728 15.4218 76.3728 14.9809C76.3728 14.5522 76.2778 14.1717 76.0878 13.8394C75.8979 13.5069 75.633 13.2498 75.2928 13.068C74.9529 12.8861 74.5656 12.7951 74.1307 12.7951H71.8946V14.9717Z" fill="#E5012C"/>
<path d="M80.7753 14.9815C80.7753 13.8287 81.025 12.8078 81.5244 11.919C82.024 11.0299 82.7233 10.3407 83.6224 9.85135C84.5215 9.36177 85.5575 9.11697 86.7304 9.11697C88.0199 9.11697 89.1486 9.40322 90.1166 9.97571C91.0847 10.5482 91.801 11.3748 92.2657 12.4554C92.7305 13.5358 92.8766 14.8052 92.7043 16.2637H84.7407C84.7874 16.543 84.8883 16.7981 85.0434 17.0292C85.183 17.3117 85.399 17.5507 85.6914 17.7462C85.984 17.9417 86.3412 18.0433 86.7632 18.0509C87.061 18.0587 87.3441 18.0076 87.6124 17.8974C87.881 17.7872 88.0912 17.6631 88.2431 17.525H92.3204C91.8581 18.5628 91.1463 19.3739 90.185 19.9582C89.224 20.5422 88.0724 20.8342 86.7304 20.8342C85.5575 20.8342 84.5196 20.5896 83.6166 20.1002C82.7137 19.6106 82.0145 18.9233 81.5188 18.0381C81.0231 17.153 80.7753 16.1341 80.7753 14.9815ZM88.7552 13.8528C88.7009 13.4865 88.5767 13.1839 88.3828 12.945C88.1888 12.6906 87.9522 12.4998 87.673 12.3726C87.3937 12.2454 87.0835 12.1818 86.7422 12.1818C86.3838 12.1818 86.0634 12.2528 85.7811 12.3948C85.4987 12.5366 85.2644 12.7309 85.0781 12.9777C84.9773 13.094 84.8997 13.2239 84.8454 13.3674C84.7911 13.511 84.7524 13.6728 84.7292 13.8528H88.7552Z" fill="#E5012C"/>
<path d="M100.793 13.1649H98.4132V20.5829H94.4399V9.36896H100.793V13.1649Z" fill="#E5012C"/>
<path d="M108.318 20.8343C106.941 20.8343 105.786 20.5606 104.852 20.0132C103.918 19.4658 103.223 18.718 102.768 17.7698C102.313 16.8214 102.085 15.7451 102.085 14.541V5.25137H106.354V14.6739C106.354 15.2998 106.532 15.8036 106.888 16.1852C107.244 16.5668 107.727 16.7576 108.336 16.7576C108.95 16.7576 109.437 16.5668 109.795 16.1852C110.153 15.8036 110.332 15.2998 110.332 14.6739V5.25137H114.601V14.4376C114.601 15.6319 114.366 16.7131 113.896 17.6811C113.426 18.6489 112.716 19.4165 111.767 19.9837C110.819 20.5507 109.669 20.8343 108.318 20.8343Z" fill="#E5012C"/>
<path d="M116.731 5.25134H121V20.5829H116.731V5.25134Z" fill="#E5012C"/>
<path d="M119.252 27.1504C119.177 27.1504 119.107 27.1443 119.043 27.1321C118.98 27.1209 118.93 27.1077 118.892 27.0924L119.02 26.6626C119.1 26.686 119.172 26.6972 119.235 26.6962C119.298 26.6951 119.353 26.6753 119.401 26.6367C119.45 26.5991 119.491 26.5361 119.525 26.4477L119.572 26.3212L118.723 23.9313H119.308L119.848 25.6993H119.872L120.413 23.9313H121L120.063 26.5559C120.019 26.6799 119.961 26.7861 119.889 26.8745C119.817 26.9639 119.728 27.032 119.624 27.0787C119.52 27.1265 119.396 27.1504 119.252 27.1504Z" fill="#979797"/>
<path d="M117.398 26.3182C117.17 26.3182 116.972 26.2679 116.804 26.1673C116.636 26.0667 116.506 25.926 116.414 25.7451C116.322 25.5642 116.276 25.3529 116.276 25.111C116.276 24.8692 116.322 24.6573 116.414 24.4754C116.506 24.2936 116.636 24.1523 116.804 24.0517C116.972 23.9511 117.17 23.9008 117.398 23.9008C117.627 23.9008 117.825 23.9511 117.993 24.0517C118.16 24.1523 118.29 24.2936 118.381 24.4754C118.474 24.6573 118.52 24.8692 118.52 25.111C118.52 25.3529 118.474 25.5642 118.381 25.7451C118.29 25.926 118.16 26.0667 117.993 26.1673C117.825 26.2679 117.627 26.3182 117.398 26.3182ZM117.401 25.8762C117.525 25.8762 117.629 25.8421 117.712 25.7741C117.796 25.705 117.858 25.6125 117.898 25.4966C117.94 25.3808 117.961 25.2518 117.961 25.1095C117.961 24.9662 117.94 24.8367 117.898 24.7208C117.858 24.604 117.796 24.511 117.712 24.4419C117.629 24.3728 117.525 24.3383 117.401 24.3383C117.274 24.3383 117.169 24.3728 117.084 24.4419C117.001 24.511 116.938 24.604 116.897 24.7208C116.856 24.8367 116.836 24.9662 116.836 25.1095C116.836 25.2518 116.856 25.3808 116.897 25.4966C116.938 25.6125 117.001 25.705 117.084 25.7741C117.169 25.8421 117.274 25.8762 117.401 25.8762Z" fill="#979797"/>
<path d="M115.81 23.1509V26.2725H115.258V23.1509H115.81Z" fill="#979797"/>
<path d="M112.575 27.1504V23.9313H113.118V24.3184H113.15C113.179 24.2615 113.219 24.2011 113.27 24.1371C113.322 24.072 113.392 24.0167 113.481 23.9709C113.569 23.9242 113.682 23.9008 113.819 23.9008C114 23.9008 114.163 23.9471 114.308 24.0395C114.455 24.131 114.571 24.2666 114.656 24.4465C114.742 24.6253 114.786 24.8448 114.786 25.1049C114.786 25.362 114.743 25.5805 114.659 25.7603C114.575 25.9402 114.46 26.0774 114.315 26.1719C114.169 26.2664 114.005 26.3136 113.821 26.3136C113.687 26.3136 113.575 26.2913 113.487 26.2466C113.399 26.2018 113.327 26.148 113.274 26.085C113.221 26.021 113.18 25.9605 113.15 25.9036H113.127V27.1504H112.575ZM113.117 25.1019C113.117 25.2533 113.138 25.3859 113.181 25.4997C113.224 25.6135 113.287 25.7024 113.368 25.7664C113.45 25.8294 113.55 25.8609 113.667 25.8609C113.789 25.8609 113.891 25.8284 113.973 25.7634C114.055 25.6973 114.117 25.6074 114.159 25.4936C114.202 25.3788 114.223 25.2482 114.223 25.1019C114.223 24.9566 114.202 24.8275 114.161 24.7147C114.119 24.6019 114.057 24.5135 113.975 24.4495C113.892 24.3855 113.79 24.3535 113.667 24.3535C113.549 24.3535 113.449 24.3845 113.366 24.4465C113.284 24.5085 113.222 24.5953 113.179 24.7071C113.137 24.8189 113.117 24.9505 113.117 25.1019Z" fill="#979797"/>
<path d="M111.068 26.3182C110.833 26.3182 110.63 26.2694 110.459 26.1719C110.29 26.0733 110.159 25.9341 110.068 25.7542C109.976 25.5734 109.931 25.3605 109.931 25.1156C109.931 24.8748 109.976 24.6634 110.068 24.4815C110.16 24.2986 110.289 24.1564 110.455 24.0548C110.62 23.9521 110.815 23.9008 111.039 23.9008C111.183 23.9008 111.319 23.9242 111.447 23.9709C111.576 24.0167 111.69 24.0878 111.789 24.1843C111.888 24.2808 111.966 24.4038 112.023 24.5532C112.08 24.7015 112.109 24.8783 112.109 25.0836V25.2528H110.19V24.8809H111.58C111.579 24.7752 111.556 24.6812 111.511 24.5989C111.466 24.5156 111.404 24.45 111.324 24.4023C111.244 24.3545 111.152 24.3306 111.046 24.3306C110.933 24.3306 110.834 24.3581 110.749 24.4129C110.664 24.4668 110.597 24.5379 110.549 24.6263C110.503 24.7137 110.479 24.8097 110.478 24.9144V25.2391C110.478 25.3752 110.503 25.4921 110.552 25.5896C110.602 25.6862 110.672 25.7603 110.761 25.8122C110.851 25.863 110.955 25.8884 111.075 25.8884C111.155 25.8884 111.228 25.8772 111.293 25.8548C111.358 25.8315 111.415 25.7974 111.462 25.7527C111.51 25.708 111.546 25.6526 111.571 25.5866L112.086 25.6445C112.053 25.7807 111.991 25.8995 111.9 26.0012C111.809 26.1018 111.694 26.18 111.552 26.2359C111.411 26.2908 111.249 26.3182 111.068 26.3182Z" fill="#979797"/>
<path d="M108.003 26.2725H106.945V23.1509H108.025C108.334 23.1509 108.601 23.2134 108.823 23.3384C109.047 23.4624 109.219 23.6407 109.338 23.8734C109.458 24.1061 109.518 24.3845 109.518 24.7086C109.518 25.0338 109.458 25.3132 109.337 25.5469C109.217 25.7806 109.044 25.96 108.817 26.085C108.592 26.21 108.32 26.2725 108.003 26.2725ZM107.511 25.7832H107.976C108.193 25.7832 108.375 25.7436 108.52 25.6643C108.665 25.584 108.774 25.4646 108.848 25.3061C108.921 25.1466 108.957 24.9474 108.957 24.7086C108.957 24.4698 108.921 24.2717 108.848 24.1142C108.774 23.9557 108.666 23.8373 108.523 23.7591C108.381 23.6798 108.204 23.6402 107.993 23.6402H107.511V25.7832Z" fill="#979797"/>
<path d="M105.335 25.8456L105.315 26.0133C105.301 26.1413 105.275 26.2714 105.239 26.4035C105.203 26.5366 105.166 26.6591 105.126 26.7708C105.086 26.8826 105.054 26.9705 105.03 27.0345H104.658C104.672 26.9725 104.691 26.8882 104.716 26.7815C104.741 26.6748 104.766 26.5549 104.789 26.4218C104.812 26.2887 104.828 26.1535 104.836 26.0164L104.847 25.8456H105.335Z" fill="#979797"/>
<path d="M103.179 26.3182C102.944 26.3182 102.742 26.2694 102.571 26.1719C102.401 26.0733 102.271 25.9341 102.179 25.7542C102.088 25.5734 102.042 25.3605 102.042 25.1156C102.042 24.8748 102.088 24.6634 102.179 24.4815C102.272 24.2986 102.401 24.1564 102.566 24.0548C102.732 23.9521 102.927 23.9008 103.15 23.9008C103.294 23.9008 103.431 23.9242 103.559 23.9709C103.688 24.0167 103.802 24.0878 103.9 24.1843C104 24.2808 104.078 24.4038 104.135 24.5532C104.192 24.7015 104.22 24.8783 104.22 25.0836V25.2528H102.301V24.8809H103.691C103.69 24.7752 103.667 24.6812 103.623 24.5989C103.578 24.5156 103.516 24.45 103.435 24.4023C103.356 24.3545 103.264 24.3306 103.158 24.3306C103.045 24.3306 102.946 24.3581 102.861 24.4129C102.775 24.4668 102.709 24.5379 102.661 24.6263C102.614 24.7137 102.59 24.8097 102.589 24.9144V25.2391C102.589 25.3752 102.614 25.4921 102.664 25.5896C102.714 25.6862 102.783 25.7603 102.873 25.8122C102.962 25.863 103.067 25.8884 103.187 25.8884C103.267 25.8884 103.34 25.8772 103.405 25.8548C103.47 25.8315 103.526 25.7974 103.574 25.7527C103.622 25.708 103.658 25.6526 103.682 25.5866L104.197 25.6445C104.165 25.7807 104.103 25.8995 104.011 26.0012C103.921 26.1018 103.805 26.18 103.664 26.2359C103.523 26.2908 103.361 26.3182 103.179 26.3182Z" fill="#979797"/>
<path d="M101.706 23.9313V24.358H100.36V23.9313H101.706ZM100.693 23.3704H101.245V25.5682C101.245 25.6424 101.256 25.6993 101.278 25.739C101.301 25.7776 101.332 25.804 101.369 25.8182C101.407 25.8324 101.449 25.8396 101.494 25.8396C101.529 25.8396 101.561 25.837 101.589 25.8319C101.618 25.8269 101.641 25.8223 101.656 25.8182L101.749 26.2496C101.72 26.2597 101.677 26.2709 101.623 26.2831C101.569 26.2953 101.503 26.3024 101.424 26.3044C101.286 26.3085 101.162 26.2877 101.051 26.2419C100.94 26.1952 100.852 26.1231 100.787 26.0255C100.723 25.928 100.692 25.806 100.693 25.6597V23.3704Z" fill="#979797"/>
<path d="M98.7464 26.3197C98.5981 26.3197 98.4645 26.2933 98.3456 26.2405C98.2277 26.1866 98.1342 26.1073 98.0651 26.0027C97.9971 25.898 97.963 25.769 97.963 25.6155C97.963 25.4834 97.9874 25.3742 98.0362 25.2878C98.0849 25.2015 98.1515 25.1324 98.2358 25.0805C98.3202 25.0287 98.4152 24.9896 98.5209 24.9632C98.6276 24.9357 98.7378 24.9159 98.8516 24.9037C98.9888 24.8895 99.1001 24.8768 99.1854 24.8656C99.2708 24.8534 99.3328 24.8351 99.3714 24.8108C99.411 24.7854 99.4308 24.7462 99.4308 24.6934V24.6843C99.4308 24.5694 99.3968 24.4805 99.3287 24.4175C99.2606 24.3545 99.1626 24.323 99.0345 24.323C98.8994 24.323 98.7922 24.3525 98.7129 24.4114C98.6347 24.4704 98.5818 24.54 98.5544 24.6202L98.0392 24.5471C98.0799 24.4048 98.1469 24.2859 98.2404 24.1904C98.3339 24.0939 98.4482 24.0217 98.5834 23.974C98.7185 23.9252 98.8679 23.9008 99.0315 23.9008C99.1443 23.9008 99.2565 23.914 99.3683 23.9404C99.4801 23.9669 99.5822 24.0106 99.6747 24.0715C99.7671 24.1315 99.8413 24.2133 99.8972 24.3169C99.9541 24.4206 99.9826 24.5501 99.9826 24.7056V26.2725H99.4521V25.9509H99.4339C99.4003 26.0159 99.3531 26.0769 99.2921 26.1338C99.2322 26.1896 99.1565 26.2349 99.065 26.2694C98.9746 26.3029 98.8684 26.3197 98.7464 26.3197ZM98.8897 25.9143C99.0005 25.9143 99.0965 25.8924 99.1778 25.8487C99.2591 25.804 99.3216 25.7451 99.3653 25.6719C99.41 25.5988 99.4323 25.519 99.4323 25.4326V25.1568C99.4151 25.171 99.3856 25.1842 99.3439 25.1964C99.3033 25.2086 99.2576 25.2192 99.2068 25.2284C99.1559 25.2375 99.1056 25.2457 99.0559 25.2528C99.0061 25.2599 98.9629 25.266 98.9263 25.2711C98.844 25.2822 98.7703 25.3005 98.7053 25.3259C98.6403 25.3513 98.5889 25.3869 98.5514 25.4326C98.5138 25.4773 98.495 25.5353 98.495 25.6064C98.495 25.708 98.532 25.7847 98.6062 25.8365C98.6804 25.8884 98.7749 25.9143 98.8897 25.9143Z" fill="#979797"/>
<path d="M97.5054 23.1509V26.2725H96.9536V23.1509H97.5054Z" fill="#979797"/>
<path d="M95.8345 25.2878V23.9313H96.3862V26.2724H95.8512V25.8563H95.8268C95.774 25.9874 95.6871 26.0946 95.5662 26.1779C95.4463 26.2613 95.2985 26.3029 95.1227 26.3029C94.9692 26.3029 94.8336 26.2689 94.7157 26.2008C94.5989 26.1317 94.5074 26.0316 94.4414 25.9005C94.3753 25.7684 94.3423 25.6089 94.3423 25.4219V23.9313H94.894V25.3366C94.894 25.4849 94.9347 25.6028 95.016 25.6902C95.0973 25.7776 95.204 25.8213 95.3361 25.8213C95.4174 25.8213 95.4961 25.8015 95.5723 25.7618C95.6485 25.7222 95.711 25.6633 95.7598 25.585C95.8096 25.5058 95.8345 25.4067 95.8345 25.2878Z" fill="#979797"/>
<path d="M90.4902 26.2725V23.9313H91.0176V24.3291H91.045C91.0938 24.195 91.1746 24.0903 91.2874 24.0151C91.4002 23.9389 91.5348 23.9008 91.6913 23.9008C91.8498 23.9008 91.9834 23.9394 92.0922 24.0167C92.2019 24.0929 92.2791 24.197 92.3238 24.3291H92.3482C92.4 24.1991 92.4874 24.0954 92.6104 24.0182C92.7344 23.9399 92.8812 23.9008 93.0509 23.9008C93.2663 23.9008 93.4421 23.9689 93.5782 24.1051C93.7144 24.2412 93.7825 24.4399 93.7825 24.701V26.2725H93.2292V24.7864C93.2292 24.6411 93.1906 24.5349 93.1134 24.4678C93.0361 24.3997 92.9416 24.3657 92.8299 24.3657C92.6968 24.3657 92.5926 24.4074 92.5174 24.4907C92.4432 24.573 92.4061 24.6802 92.4061 24.8123V26.2725H91.8651V24.7635C91.8651 24.6426 91.8285 24.5461 91.7553 24.4739C91.6832 24.4018 91.5887 24.3657 91.4718 24.3657C91.3926 24.3657 91.3204 24.386 91.2554 24.4267C91.1903 24.4663 91.1385 24.5227 91.0999 24.5958C91.0613 24.668 91.042 24.7523 91.042 24.8489V26.2725H90.4902Z" fill="#979797"/>
<path d="M89.3712 26.2724V23.9313H89.9229V26.2724H89.3712ZM89.6486 23.599C89.5612 23.599 89.486 23.57 89.423 23.5121C89.36 23.4532 89.3285 23.3826 89.3285 23.3003C89.3285 23.2169 89.36 23.1463 89.423 23.0884C89.486 23.0295 89.5612 23 89.6486 23C89.737 23 89.8122 23.0295 89.8742 23.0884C89.9372 23.1463 89.9687 23.2169 89.9687 23.3003C89.9687 23.3826 89.9372 23.4532 89.8742 23.5121C89.8122 23.57 89.737 23.599 89.6486 23.599Z" fill="#979797"/>
<path d="M88.3046 24.009C88.2904 23.8759 88.2304 23.7723 88.1247 23.6981C88.0201 23.6239 87.8839 23.5868 87.7162 23.5868C87.5984 23.5868 87.4973 23.6046 87.4129 23.6402C87.3286 23.6757 87.2641 23.724 87.2194 23.785C87.1746 23.8459 87.1518 23.9155 87.1508 23.9938C87.1508 24.0588 87.1655 24.1152 87.195 24.163C87.2254 24.2107 87.2666 24.2514 87.3184 24.2849C87.3702 24.3174 87.4277 24.3448 87.4907 24.3672C87.5537 24.3896 87.6172 24.4084 87.6812 24.4236L87.9738 24.4968C88.0917 24.5242 88.205 24.5613 88.3137 24.608C88.4235 24.6548 88.5215 24.7137 88.6079 24.7848C88.6953 24.856 88.7644 24.9418 88.8152 25.0424C88.866 25.143 88.8914 25.2609 88.8914 25.396C88.8914 25.5789 88.8447 25.74 88.7512 25.8792C88.6577 26.0174 88.5225 26.1256 88.3457 26.2039C88.1699 26.2811 87.9571 26.3197 87.7071 26.3197C87.4642 26.3197 87.2534 26.2821 87.0746 26.2069C86.8967 26.1317 86.7575 26.022 86.6569 25.8777C86.5573 25.7334 86.5035 25.5576 86.4954 25.3503H87.0517C87.0598 25.459 87.0934 25.5495 87.1523 25.6216C87.2112 25.6938 87.2879 25.7476 87.3824 25.7832C87.478 25.8187 87.5847 25.8365 87.7025 25.8365C87.8255 25.8365 87.9332 25.8182 88.0257 25.7816C88.1191 25.7441 88.1923 25.6922 88.2451 25.6262C88.298 25.5591 88.3249 25.4809 88.3259 25.3915C88.3249 25.3102 88.301 25.2431 88.2543 25.1903C88.2075 25.1364 88.142 25.0917 88.0577 25.0561C87.9743 25.0196 87.8768 24.987 87.765 24.9586L87.4099 24.8671C87.1528 24.8011 86.9496 24.701 86.8002 24.5669C86.6518 24.4317 86.5777 24.2524 86.5777 24.0288C86.5777 23.8449 86.6275 23.6839 86.727 23.5457C86.8276 23.4075 86.9643 23.3003 87.137 23.2241C87.3098 23.1468 87.5054 23.1082 87.7239 23.1082C87.9454 23.1082 88.1395 23.1468 88.3061 23.2241C88.4738 23.3003 88.6054 23.4064 88.7009 23.5426C88.7964 23.6778 88.8457 23.8332 88.8487 24.009H88.3046Z" fill="#979797"/>
<path d="M84.9974 25.8456L84.9776 26.0133C84.9634 26.1413 84.938 26.2714 84.9014 26.4035C84.8658 26.5366 84.8282 26.6591 84.7886 26.7708C84.749 26.8826 84.717 26.9705 84.6926 27.0345H84.3207C84.3349 26.9725 84.3542 26.8882 84.3786 26.7815C84.404 26.6748 84.4284 26.5549 84.4518 26.4218C84.4751 26.2887 84.4909 26.1535 84.499 26.0164L84.5097 25.8456H84.9974Z" fill="#979797"/>
<path d="M82.5149 26.3136C82.3309 26.3136 82.1663 26.2664 82.021 26.1719C81.8757 26.0774 81.7609 25.9402 81.6766 25.7603C81.5922 25.5805 81.55 25.362 81.55 25.1049C81.55 24.8448 81.5927 24.6253 81.6781 24.4465C81.7645 24.2666 81.8808 24.131 82.0271 24.0395C82.1734 23.947 82.3365 23.9008 82.5164 23.9008C82.6536 23.9008 82.7664 23.9242 82.8548 23.9709C82.9432 24.0167 83.0133 24.072 83.0651 24.1371C83.1169 24.2011 83.1571 24.2615 83.1855 24.3184H83.2084V23.1509H83.7617V26.2725H83.219V25.9036H83.1855C83.1571 25.9605 83.1159 26.021 83.062 26.085C83.0082 26.148 82.9371 26.2018 82.8487 26.2465C82.7603 26.2913 82.649 26.3136 82.5149 26.3136ZM82.6688 25.8609C82.7857 25.8609 82.8852 25.8294 82.9675 25.7664C83.0499 25.7024 83.1123 25.6135 83.155 25.4997C83.1977 25.3859 83.219 25.2533 83.219 25.1019C83.219 24.9505 83.1977 24.8189 83.155 24.7071C83.1134 24.5953 83.0514 24.5085 82.9691 24.4465C82.8878 24.3845 82.7877 24.3535 82.6688 24.3535C82.5459 24.3535 82.4432 24.3855 82.3609 24.4495C82.2786 24.5135 82.2166 24.6019 82.175 24.7147C82.1333 24.8275 82.1125 24.9566 82.1125 25.1019C82.1125 25.2482 82.1333 25.3788 82.175 25.4936C82.2176 25.6074 82.2801 25.6973 82.3624 25.7634C82.4458 25.8284 82.5479 25.8609 82.6688 25.8609Z" fill="#979797"/>
<path d="M81.0787 23.1509V26.2725H80.527V23.1509H81.0787Z" fill="#979797"/>
<path d="M79.4078 26.2724V23.9313H79.9595V26.2724H79.4078ZM79.6852 23.599C79.5978 23.599 79.5226 23.57 79.4596 23.5121C79.3966 23.4532 79.3651 23.3826 79.3651 23.3003C79.3651 23.2169 79.3966 23.1463 79.4596 23.0884C79.5226 23.0295 79.5978 23 79.6852 23C79.7736 23 79.8488 23.0295 79.9108 23.0884C79.9738 23.1463 80.0053 23.2169 80.0053 23.3003C80.0053 23.3826 79.9738 23.4532 79.9108 23.5121C79.8488 23.57 79.7736 23.599 79.6852 23.599Z" fill="#979797"/>
<path d="M78.2887 25.2878V23.9313H78.8405V26.2724H78.3055V25.8563H78.2811C78.2282 25.9874 78.1414 26.0946 78.0204 26.1779C77.9005 26.2613 77.7527 26.3029 77.5769 26.3029C77.4235 26.3029 77.2878 26.2689 77.1699 26.2008C77.0531 26.1317 76.9616 26.0316 76.8956 25.9005C76.8295 25.7684 76.7965 25.6089 76.7965 25.4219V23.9313H77.3483V25.3366C77.3483 25.4849 77.3889 25.6028 77.4702 25.6902C77.5515 25.7776 77.6582 25.8213 77.7903 25.8213C77.8716 25.8213 77.9503 25.8015 78.0265 25.7618C78.1027 25.7222 78.1652 25.6633 78.214 25.585C78.2638 25.5058 78.2887 25.4067 78.2887 25.2878Z" fill="#979797"/>
<path d="M74 26.2725V23.1509H75.195C75.4205 23.1509 75.608 23.1865 75.7574 23.2576C75.9078 23.3277 76.0201 23.4237 76.0942 23.5457C76.1694 23.6676 76.207 23.8058 76.207 23.9603C76.207 24.0873 76.1826 24.196 76.1339 24.2864C76.0851 24.3759 76.0196 24.4485 75.9372 24.5044C75.8549 24.5603 75.763 24.6004 75.6614 24.6248V24.6553C75.7721 24.6614 75.8783 24.6954 75.9799 24.7574C76.0826 24.8184 76.1664 24.9047 76.2314 25.0165C76.2964 25.1283 76.329 25.2634 76.329 25.422C76.329 25.5835 76.2898 25.7288 76.2116 25.8579C76.1334 25.9859 76.0155 26.087 75.858 26.1612C75.7005 26.2354 75.5023 26.2725 75.2636 26.2725H74ZM74.5655 25.8H75.1736C75.3789 25.8 75.5267 25.7608 75.6172 25.6826C75.7086 25.6033 75.7543 25.5017 75.7543 25.3778C75.7543 25.2853 75.7315 25.202 75.6858 25.1278C75.64 25.0526 75.575 24.9937 75.4907 24.951C75.4063 24.9073 75.3057 24.8854 75.1889 24.8854H74.5655V25.8ZM74.5655 24.4785H75.1249C75.2224 24.4785 75.3103 24.4607 75.3885 24.4251C75.4668 24.3886 75.5283 24.3372 75.573 24.2712C75.6187 24.2041 75.6416 24.1249 75.6416 24.0334C75.6416 23.9125 75.5989 23.8129 75.5135 23.7347C75.4292 23.6564 75.3037 23.6173 75.137 23.6173H74.5655V24.4785Z" fill="#979797"/>
</svg>
