<svg width="134" height="32" viewBox="0 0 134 32" fill="none" xmlns="http://www.w3.org/2000/svg">
<path d="M0 16C0 7.16344 7.16344 0 16 0V0C24.8366 0 32 7.16344 32 16V16C32 24.8366 24.8366 32 16 32V32C7.16344 32 0 24.8366 0 16V16Z" fill="#EDEDED"/>
<path d="M7 7.00422V11.502H11.502V7L7 7.00422ZM11.502 11.502V15.9998H15.9998V11.502H11.502ZM15.9998 11.502V15.9998H24.1816V11.502H15.9998ZM15.9998 15.9998V20.4976L24.1816 20.5022V15.9998H15.9998ZM7 15.9998V20.4976L11.502 20.5022V15.9998H7ZM11.502 20.5022V24.9954L15.9998 25V20.4976L11.502 20.5022Z" fill="#E5012C"/>
<path d="M48.8278 2.00006L54.4276 12.945V2.00006H59.2953V17.742H52.2487L46.8677 7.30685V17.742H42V2.00006H48.8278Z" fill="#E5012C"/>
<path d="M74.176 15.8129H65.9328L65.0911 17.742H60.0413L67.0255 2.00006H72.5104L80.1436 17.742H75.0596L74.176 15.8129ZM72.4626 12.0495L69.8926 6.11767L67.4888 12.0495H72.4626Z" fill="#E5012C"/>
<path d="M81.1074 7.0387H85.9748V17.742H81.1074V7.0387ZM85.9748 2.00006H90.8426V7.0387H85.9748V2.00006Z" fill="#E5012C"/>
<path d="M100.62 18C98.8816 18 97.4064 17.6901 96.1945 17.0702C94.9826 16.4504 94.0719 15.6181 93.4625 14.5733C92.8531 13.5282 92.5483 12.3648 92.5483 11.083V2H97.4157V10.6579C97.4157 11.2726 97.5549 11.8105 97.8332 12.2715C98.1115 12.7323 98.4947 13.0865 98.9827 13.334C99.4707 13.5815 100.022 13.7053 100.637 13.7053C101.255 13.7053 101.799 13.5815 102.27 13.334C102.741 13.0865 103.107 12.7323 103.368 12.2715C103.629 11.8105 103.76 11.2726 103.76 10.6579V2H108.628V11.083C108.628 12.3057 108.311 13.4455 107.679 14.5024C107.047 15.559 106.128 16.4061 104.921 17.0437C103.715 17.6812 102.282 18 100.62 18Z" fill="#E5012C"/>
<path d="M111.132 2.00006H116V17.742H111.132V2.00006Z" fill="#E5012C"/>
<path d="M130.244 21.6058V22.7999H126.478V21.6058H130.244ZM127.408 20.0363H128.952V26.1862C128.952 26.3938 128.983 26.553 129.046 26.6639C129.111 26.772 129.196 26.8459 129.302 26.8857C129.407 26.9255 129.523 26.9454 129.651 26.9454C129.748 26.9454 129.836 26.9383 129.916 26.9241C129.998 26.9098 130.061 26.8971 130.103 26.8857L130.364 28.0926C130.281 28.1211 130.163 28.1523 130.01 28.1865C129.859 28.2206 129.674 28.2405 129.455 28.2462C129.068 28.2575 128.72 28.1993 128.41 28.0713C128.1 27.9405 127.854 27.7387 127.672 27.4657C127.493 27.1928 127.405 26.8516 127.408 26.4421V20.0363Z" fill="#A4A7AE"/>
<path d="M123.842 28.1567V21.6058H125.385V28.1567H123.842ZM124.618 20.6761C124.373 20.6761 124.163 20.5951 123.987 20.433C123.81 20.2681 123.722 20.0705 123.722 19.8402C123.722 19.607 123.81 19.4094 123.987 19.2474C124.163 19.0825 124.373 19 124.618 19C124.865 19 125.076 19.0825 125.249 19.2474C125.425 19.4094 125.513 19.607 125.513 19.8402C125.513 20.0705 125.425 20.2681 125.249 20.433C125.076 20.5951 124.865 20.6761 124.618 20.6761Z" fill="#A4A7AE"/>
<path d="M115.372 28.1567V19.4222H116.954V23.4355H117.06L120.468 19.4222H122.4L119.022 23.3416L122.43 28.1567H120.528L117.922 24.4121L116.954 25.5551V28.1567H115.372Z" fill="#A4A7AE"/>
<path d="M110.679 19.4222V28.1567H109.097V19.4222H110.679Z" fill="#A4A7AE"/>
<path d="M105.795 19.4222H107.377V25.1286C107.377 25.7541 107.229 26.3043 106.933 26.7791C106.641 27.2539 106.228 27.625 105.697 27.8923C105.165 28.1567 104.544 28.2889 103.833 28.2889C103.119 28.2889 102.497 28.1567 101.965 27.8923C101.433 27.625 101.021 27.2539 100.728 26.7791C100.435 26.3043 100.289 25.7541 100.289 25.1286V19.4222H101.871V24.9964C101.871 25.3603 101.951 25.6845 102.11 25.9688C102.272 26.2531 102.499 26.4763 102.792 26.6384C103.085 26.7976 103.432 26.8772 103.833 26.8772C104.234 26.8772 104.581 26.7976 104.874 26.6384C105.169 26.4763 105.397 26.2531 105.556 25.9688C105.715 25.6845 105.795 25.3603 105.795 24.9964V19.4222Z" fill="#A4A7AE"/>
<path d="M86.4634 28.1567V21.6059H87.939V22.719H88.0158C88.1523 22.3437 88.3783 22.0508 88.6939 21.8404C89.0095 21.6272 89.3862 21.5206 89.8241 21.5206C90.2676 21.5206 90.6415 21.6286 90.9457 21.8447C91.2528 22.0579 91.4689 22.3494 91.594 22.719H91.6622C91.8072 22.3551 92.0518 22.065 92.3958 21.849C92.7427 21.63 93.1535 21.5206 93.6283 21.5206C94.2311 21.5206 94.723 21.7111 95.104 22.0921C95.485 22.4731 95.6755 23.0289 95.6755 23.7596V28.1567H94.1273V23.9985C94.1273 23.5919 94.0193 23.2948 93.8032 23.1071C93.5871 22.9166 93.3227 22.8214 93.0099 22.8214C92.6375 22.8214 92.346 22.9379 92.1356 23.1711C91.9281 23.4014 91.8243 23.7013 91.8243 24.071V28.1567H90.3103V23.9345C90.3103 23.5961 90.2079 23.326 90.0032 23.1242C89.8013 22.9223 89.5369 22.8214 89.2099 22.8214C88.9882 22.8214 88.7863 22.8782 88.6043 22.9919C88.4224 23.1028 88.2774 23.2606 88.1693 23.4653C88.0613 23.6672 88.0073 23.9032 88.0073 24.1733V28.1567H86.4634Z" fill="#A4A7AE"/>
<path d="M83.3318 28.1567V21.6058H84.8757V28.1567H83.3318ZM84.108 20.6761C83.8635 20.6761 83.6531 20.5951 83.4768 20.433C83.3005 20.2681 83.2124 20.0705 83.2124 19.8402C83.2124 19.607 83.3005 19.4094 83.4768 19.2474C83.6531 19.0825 83.8635 19 84.108 19C84.3554 19 84.5658 19.0825 84.7392 19.2474C84.9155 19.4094 85.0036 19.607 85.0036 19.8402C85.0036 20.0705 84.9155 20.2681 84.7392 20.433C84.5658 20.5951 84.3554 20.6761 84.108 20.6761Z" fill="#A4A7AE"/>
<path d="M81.918 23.3374L80.5106 23.4909C80.4708 23.3488 80.4011 23.2151 80.3016 23.09C80.2049 22.9649 80.0741 22.864 79.9092 22.7872C79.7443 22.7105 79.5425 22.6721 79.3036 22.6721C78.9823 22.6721 78.7122 22.7417 78.4933 22.8811C78.2772 23.0204 78.1706 23.2009 78.1734 23.4227C78.1706 23.6132 78.2403 23.7682 78.3824 23.8876C78.5274 24.007 78.7663 24.1051 79.0989 24.1818L80.2163 24.4207C80.8361 24.5543 81.2967 24.7661 81.5981 25.0561C81.9024 25.3461 82.0559 25.7257 82.0587 26.1949C82.0559 26.6071 81.9351 26.9711 81.6962 27.2867C81.4602 27.5994 81.1318 27.8439 80.711 28.0202C80.2902 28.1965 79.8069 28.2846 79.261 28.2846C78.4592 28.2846 77.8138 28.1169 77.3247 27.7814C76.8357 27.443 76.5443 26.9725 76.4504 26.3697L77.9559 26.2247C78.0242 26.5204 78.1692 26.7436 78.391 26.8943C78.6127 27.045 78.9013 27.1203 79.2567 27.1203C79.6235 27.1203 79.9178 27.045 80.1395 26.8943C80.3642 26.7436 80.4765 26.5574 80.4765 26.3356C80.4765 26.1479 80.404 25.993 80.259 25.8707C80.1168 25.7485 79.895 25.6546 79.5936 25.5892L78.4762 25.3547C77.8479 25.2239 77.383 25.0035 77.0816 24.6936C76.7803 24.3809 76.631 23.9857 76.6338 23.508C76.631 23.1043 76.7405 22.7545 76.9622 22.4588C77.1868 22.1603 77.4982 21.93 77.8962 21.7679C78.2971 21.603 78.7592 21.5206 79.2823 21.5206C80.05 21.5206 80.6542 21.6841 81.0949 22.011C81.5384 22.338 81.8128 22.7801 81.918 23.3374Z" fill="#A4A7AE"/>
<path d="M71.9788 28.1567V21.6059H73.4757V22.6977H73.544C73.6634 22.3195 73.8681 22.0281 74.1581 21.8234C74.451 21.6158 74.785 21.512 75.1603 21.512C75.2456 21.512 75.3409 21.5163 75.4461 21.5248C75.5541 21.5305 75.6437 21.5405 75.7148 21.5547V22.9749C75.6494 22.9521 75.5456 22.9322 75.4034 22.9152C75.2641 22.8953 75.1291 22.8853 74.9983 22.8853C74.7168 22.8853 74.4637 22.9464 74.2391 23.0687C74.0174 23.1881 73.8425 23.3544 73.7146 23.5677C73.5866 23.7809 73.5226 24.0269 73.5226 24.3055V28.1567H71.9788Z" fill="#A4A7AE"/>
<path d="M67.7597 28.2846C67.1029 28.2846 66.5357 28.1482 66.058 27.8752C65.5832 27.5994 65.2179 27.2099 64.962 26.7066C64.7061 26.2005 64.5781 25.6049 64.5781 24.9197C64.5781 24.2458 64.7061 23.6544 64.962 23.1455C65.2207 22.6337 65.5818 22.2356 66.0452 21.9513C66.5087 21.6642 67.0532 21.5206 67.6787 21.5206C68.0824 21.5206 68.4634 21.586 68.8217 21.7168C69.1828 21.8447 69.5012 22.0437 69.777 22.3138C70.0556 22.5839 70.2746 22.928 70.4338 23.3459C70.593 23.761 70.6726 24.2558 70.6726 24.8301V25.3035H65.3032V24.2629H69.1927C69.1899 23.9672 69.1259 23.7042 69.0008 23.4739C68.8757 23.2407 68.7008 23.0573 68.4762 22.9237C68.2544 22.7901 67.9957 22.7233 67.7 22.7233C67.3844 22.7233 67.1072 22.8 66.8684 22.9536C66.6295 23.1043 66.4433 23.3033 66.3097 23.5506C66.1789 23.7952 66.1121 24.0638 66.1092 24.3567V25.2651C66.1092 25.6461 66.1789 25.9731 66.3182 26.246C66.4575 26.5161 66.6523 26.7237 66.9025 26.8687C67.1527 27.0109 67.4455 27.0819 67.781 27.0819C68.0057 27.0819 68.2089 27.0507 68.3909 26.9881C68.5729 26.9227 68.7307 26.8275 68.8643 26.7024C68.9979 26.5773 69.0989 26.4223 69.1671 26.2375L70.6086 26.3996C70.5177 26.7806 70.3442 27.1132 70.0883 27.3975C69.8353 27.679 69.5111 27.898 69.1159 28.0543C68.7207 28.2079 68.2687 28.2846 67.7597 28.2846Z" fill="#A4A7AE"/>
<path d="M57.3535 30.6133V21.6059H58.8718V22.6891H58.9614C59.041 22.5299 59.1533 22.3607 59.2983 22.1816C59.4433 21.9997 59.6395 21.8447 59.8868 21.7168C60.1342 21.586 60.4498 21.5206 60.8336 21.5206C61.3397 21.5206 61.7961 21.6499 62.2027 21.9087C62.6121 22.1646 62.9362 22.5441 63.175 23.0474C63.4167 23.5478 63.5376 24.1619 63.5376 24.8898C63.5376 25.6091 63.4196 26.2204 63.1836 26.7237C62.9476 27.227 62.6263 27.6108 62.2197 27.8752C61.8131 28.1396 61.3525 28.2718 60.8379 28.2718C60.4626 28.2718 60.1513 28.2093 59.9039 28.0842C59.6565 27.9591 59.4575 27.8084 59.3068 27.6321C59.159 27.453 59.0438 27.2838 58.9614 27.1246H58.8974V30.6133H57.3535ZM58.8675 24.8813C58.8675 25.3049 58.9272 25.676 59.0467 25.9944C59.1689 26.3128 59.3438 26.5616 59.5712 26.7408C59.8015 26.917 60.0802 27.0052 60.4072 27.0052C60.7483 27.0052 61.0341 26.9142 61.2644 26.7322C61.4947 26.5474 61.6681 26.2958 61.7847 25.9773C61.9041 25.6561 61.9638 25.2907 61.9638 24.8813C61.9638 24.4747 61.9055 24.1136 61.789 23.798C61.6724 23.4824 61.499 23.235 61.2687 23.0559C61.0384 22.8768 60.7512 22.7872 60.4072 22.7872C60.0773 22.7872 59.7973 22.874 59.567 23.0474C59.3367 23.2208 59.1618 23.4639 59.0424 23.7767C58.9258 24.0894 58.8675 24.4576 58.8675 24.8813Z" fill="#A4A7AE"/>
<path d="M54.2219 25.4016V21.6058H55.7658V28.1567H54.2688V26.9924H54.2006C54.0528 27.3591 53.8097 27.6591 53.4713 27.8922C53.1358 28.1254 52.7221 28.242 52.2302 28.242C51.8009 28.242 51.4213 28.1467 51.0915 27.9562C50.7645 27.7629 50.5087 27.4828 50.3238 27.116C50.139 26.7464 50.0466 26.3 50.0466 25.7769V21.6058H51.5905V25.538C51.5905 25.9531 51.7042 26.283 51.9317 26.5275C52.1592 26.772 52.4577 26.8943 52.8273 26.8943C53.0548 26.8943 53.2751 26.8388 53.4884 26.7279C53.7016 26.617 53.8765 26.4521 54.013 26.2332C54.1523 26.0114 54.2219 25.7342 54.2219 25.4016Z" fill="#A4A7AE"/>
<path d="M47.0624 21.8233C47.0226 21.4509 46.8548 21.1609 46.5591 20.9533C46.2663 20.7457 45.8853 20.642 45.4162 20.642C45.0863 20.642 44.8034 20.6917 44.5674 20.7912C44.3315 20.8907 44.1509 21.0258 44.0258 21.1964C43.9007 21.367 43.8367 21.5617 43.8339 21.7807C43.8339 21.9626 43.8751 22.1204 43.9576 22.2541C44.0429 22.3877 44.158 22.5014 44.303 22.5953C44.448 22.6863 44.6087 22.763 44.785 22.8256C44.9612 22.8881 45.1389 22.9407 45.3181 22.9834L46.1369 23.1881C46.4667 23.2649 46.7838 23.3686 47.088 23.4994C47.395 23.6302 47.6694 23.7951 47.9111 23.9941C48.1556 24.1932 48.349 24.4334 48.4911 24.7149C48.6333 24.9964 48.7044 25.3262 48.7044 25.7044C48.7044 26.2161 48.5736 26.6668 48.312 27.0563C48.0504 27.443 47.6723 27.7458 47.1775 27.9647C46.6857 28.1808 46.09 28.2889 45.3906 28.2889C44.711 28.2889 44.1211 28.1837 43.6206 27.9733C43.1231 27.7629 42.7336 27.4558 42.4521 27.052C42.1734 26.6483 42.0227 26.1564 42 25.5764H43.5567C43.5794 25.8806 43.6732 26.1337 43.8382 26.3355C44.0031 26.5374 44.2177 26.6881 44.4821 26.7876C44.7494 26.8871 45.048 26.9369 45.3778 26.9369C45.7218 26.9369 46.0232 26.8857 46.2819 26.7834C46.5435 26.6782 46.7482 26.5332 46.8961 26.3483C47.0439 26.1607 47.1193 25.9418 47.1221 25.6916C47.1193 25.4641 47.0524 25.2764 46.9216 25.1286C46.7909 24.9779 46.6075 24.8528 46.3715 24.7533C46.1383 24.6509 45.8654 24.5599 45.5526 24.4803L44.5589 24.2244C43.8396 24.0396 43.2709 23.7596 42.853 23.3843C42.4379 23.0061 42.2303 22.5043 42.2303 21.8788C42.2303 21.3641 42.3696 20.9135 42.6483 20.5268C42.9297 20.1401 43.3122 19.8402 43.7955 19.6269C44.2789 19.4108 44.8262 19.3028 45.4375 19.3028C46.0573 19.3028 46.6004 19.4108 47.0667 19.6269C47.5358 19.8402 47.904 20.1373 48.1713 20.5183C48.4385 20.8964 48.5764 21.3314 48.5849 21.8233H47.0624Z" fill="#A4A7AE"/>
</svg>
