<svg width="32" height="32" viewBox="0 0 32 32" fill="none" xmlns="http://www.w3.org/2000/svg">
<path d="M0 16C0 7.16344 7.16344 0 16 0C24.8366 0 32 7.16344 32 16C32 24.8366 24.8366 32 16 32C7.16344 32 0 24.8366 0 16Z" fill="#EDEDED"/>
<path d="M11.502 7C9.01727 7.00233 7 9.01727 7 11.502H11.502V7ZM11.502 11.502V15.9998H15.9998V11.502H11.502ZM15.9998 11.502V15.9998H24.1816V11.502H15.9998ZM15.9998 15.9998V20.4976L24.1816 20.5022V15.9998H15.9998ZM7 15.9998V20.4976L11.502 20.5022V15.9998H7ZM11.502 20.5022V24.9954L15.9998 25V20.4976L11.502 20.5022Z" fill="#E5012C"/>
</svg>
