<svg width="24" height="25" viewBox="0 0 24 25" fill="none" xmlns="http://www.w3.org/2000/svg">
<g clip-path="url(#clip0_16213_14368)">
<path d="M12.0034 24.4887C18.5475 24.4887 23.8525 19.1425 23.8525 12.5477C23.8525 5.95289 18.5475 0.60675 12.0034 0.60675C5.45932 0.60675 0.154297 5.95289 0.154297 12.5477C0.154297 19.1425 5.45932 24.4887 12.0034 24.4887Z" fill="#F23939"/>
<path d="M17.5206 8.65335H16.7494C16.3209 8.65335 15.9567 8.50257 15.6565 8.20034C15.3567 7.89845 15.2066 7.53146 15.2066 7.10039V6.32389C15.2066 5.89214 15.0565 5.52578 14.7564 5.22321C14.4565 4.92132 14.092 4.7702 13.6635 4.7702H10.3211C9.89265 4.7702 9.52849 4.92132 9.22829 5.22321C8.92848 5.52544 8.77838 5.89214 8.77838 6.32389V7.10039C8.77838 7.53146 8.62828 7.89845 8.32813 8.20034C8.02827 8.50257 7.66382 8.65335 7.23529 8.65335H6.46414C6.03561 8.65335 5.67149 8.80447 5.3713 9.1067C5.07149 9.40859 4.92139 9.77563 4.92139 10.2067V14.8667C4.92139 15.2977 5.07115 15.6647 5.3713 15.9666C5.67116 16.2689 6.03561 16.4196 6.46414 16.4196H7.23529C7.66382 16.4196 8.02793 16.5708 8.32813 16.873C8.62794 17.1749 8.77838 17.5419 8.77838 17.973V18.7495C8.77838 19.1812 8.92814 19.5475 9.22829 19.8501C9.52815 20.152 9.89265 20.3031 10.3211 20.3031H13.6635C14.092 20.3031 14.4562 20.152 14.7564 19.8501C15.0562 19.5479 15.2066 19.1812 15.2066 18.7495V17.973C15.2066 17.5419 15.3564 17.1749 15.6565 16.873C15.9564 16.5708 16.3209 16.4196 16.7494 16.4196H17.5206C17.949 16.4196 18.3132 16.2689 18.6134 15.9666C18.9132 15.6647 19.0636 15.2977 19.0636 14.8667V10.2067C19.0636 9.77563 18.9135 9.40859 18.6134 9.1067C18.3135 8.80447 17.949 8.65335 17.5206 8.65335ZM15.2066 14.8667C15.2066 15.2977 15.0565 15.6647 14.7564 15.9666C14.4565 16.2689 14.092 16.4196 13.6635 16.4196H10.3211C9.89265 16.4196 9.52849 16.2689 9.22829 15.9666C8.92848 15.6647 8.77838 15.2977 8.77838 14.8667V10.2067C8.77838 9.77563 8.92814 9.40859 9.22829 9.1067C9.52815 8.80447 9.89265 8.65335 10.3211 8.65335H13.6635C14.092 8.65335 14.4562 8.80447 14.7564 9.1067C15.0562 9.40859 15.2066 9.77563 15.2066 10.2067V14.8667Z" fill="black"/>
</g>
<defs>
<clipPath id="clip0_16213_14368">
<rect width="24" height="24" fill="white" transform="translate(0 0.5)"/>
</clipPath>
</defs>
</svg>
