<svg width="24" height="25" viewBox="0 0 24 25" fill="none" xmlns="http://www.w3.org/2000/svg">
<g clip-path="url(#clip0_16213_14373)">
<path d="M12 24.5C18.6274 24.5 24 19.1274 24 12.5C24 5.87258 18.6274 0.5 12 0.5C5.37258 0.5 0 5.87258 0 12.5C0 19.1274 5.37258 24.5 12 24.5Z" fill="#FF0420"/>
<path d="M8.70355 15.86C7.97975 15.86 7.38676 15.6858 6.92447 15.3373C6.46833 14.9827 6.24023 14.4787 6.24023 13.8253C6.24023 13.6884 6.25545 13.5204 6.28583 13.3213C6.36494 12.8734 6.47745 12.3351 6.62342 11.7067C7.03699 9.99557 8.10446 9.14001 9.82574 9.14001C10.2941 9.14001 10.7137 9.22089 11.0847 9.3827C11.4558 9.53822 11.7477 9.77467 11.9606 10.092C12.1735 10.4031 12.2799 10.7765 12.2799 11.212C12.2799 11.3427 12.2647 11.5076 12.2343 11.7067C12.1431 12.2604 12.0336 12.7987 11.9059 13.3213C11.693 14.1738 11.325 14.8116 10.8019 15.2347C10.2789 15.6516 9.5794 15.86 8.70355 15.86ZM8.83127 14.516C9.17188 14.516 9.46079 14.4133 9.69801 14.208C9.94127 14.0027 10.1147 13.6884 10.218 13.2653C10.3579 12.6804 10.4644 12.1703 10.5373 11.7347C10.5617 11.604 10.5738 11.4702 10.5738 11.3333C10.5738 10.7671 10.285 10.484 9.70713 10.484C9.36652 10.484 9.07459 10.5867 8.83127 10.792C8.59406 10.9973 8.42375 11.3116 8.32036 11.7347C8.21087 12.1516 8.10139 12.6618 7.99195 13.2653C7.96761 13.3898 7.95542 13.5204 7.95542 13.6573C7.95542 14.2298 8.24735 14.516 8.83127 14.516Z" fill="white"/>
<path d="M12.6984 15.7667C12.6315 15.7667 12.5798 15.7449 12.5433 15.7013C12.5129 15.6516 12.5038 15.5956 12.5159 15.5333L13.775 9.46671C13.7871 9.39826 13.8206 9.34225 13.8754 9.29871C13.9301 9.25513 13.9879 9.23334 14.0487 9.23334H16.4755C17.1506 9.23334 17.6919 9.37647 18.0994 9.6627C18.5131 9.94892 18.7198 10.3627 18.7198 10.904C18.7198 11.0596 18.7016 11.2214 18.6651 11.3894C18.5131 12.1049 18.2059 12.6338 17.7436 12.976C17.2875 13.3182 16.661 13.4894 15.8642 13.4894H14.6326L14.2129 15.5333C14.2007 15.6018 14.1673 15.6578 14.1125 15.7013C14.0578 15.7449 14 15.7667 13.9392 15.7667H12.6984ZM15.9281 12.2014C16.1835 12.2014 16.4055 12.1298 16.5941 11.9867C16.7887 11.8436 16.9164 11.6382 16.9773 11.3707C16.9955 11.2649 17.0047 11.1716 17.0047 11.0907C17.0047 10.9103 16.953 10.7734 16.8496 10.68C16.7461 10.5805 16.5698 10.5307 16.3204 10.5307H15.2256L14.8789 12.2014H15.9281Z" fill="white"/>
</g>
<defs>
<clipPath id="clip0_16213_14373">
<rect width="24" height="24" fill="white" transform="translate(0 0.5)"/>
</clipPath>
</defs>
</svg>
